<?xml version="1.0" encoding="UTF-8"?>
<!DOCTYPE svg PUBLIC "-//W3C//DTD SVG 1.1//EN" "http://www.w3.org/Graphics/SVG/1.1/DTD/svg11.dtd">
<svg xmlns="http://www.w3.org/2000/svg" version="1.1" width="512px" height="512px" style="shape-rendering:geometricPrecision; text-rendering:geometricPrecision; image-rendering:optimizeQuality; fill-rule:evenodd; clip-rule:evenodd" xmlns:xlink="http://www.w3.org/1999/xlink">
<g><path style="opacity:0.969" fill="#000000" d="M 247.5,-0.5 C 252.833,-0.5 258.167,-0.5 263.5,-0.5C 284.858,7.89311 292.025,23.2264 285,45.5C 282.588,49.9159 279.422,53.7492 275.5,57C 285.571,64.5351 296.571,70.2018 308.5,74C 315.074,82.8136 320.074,92.4802 323.5,103C 322.648,106.613 321.815,110.113 321,113.5C 324.833,116 328.667,118.5 332.5,121C 341.167,128.333 349.833,135.667 358.5,143C 362.928,145.107 367.595,146.274 372.5,146.5C 377.508,145.661 382.508,145.161 387.5,145C 393.159,145.996 396.993,149.162 399,154.5C 399.667,166.167 399.667,177.833 399,189.5C 397.167,194 394,197.167 389.5,199C 374.17,199.5 358.837,199.667 343.5,199.5C 343.333,237.835 343.5,276.168 344,314.5C 348.907,318.371 354.074,321.871 359.5,325C 362.787,328.293 365.287,332.127 367,336.5C 367.667,346.5 367.667,356.5 367,366.5C 365.287,370.873 362.787,374.707 359.5,378C 352.464,382.851 345.131,387.184 337.5,391C 334.183,391.498 330.85,391.665 327.5,391.5C 324.594,430.159 330.261,467.492 344.5,503.5C 343.807,506.91 342.14,509.577 339.5,511.5C 283.5,511.5 227.5,511.5 171.5,511.5C 168.86,509.577 167.193,506.91 166.5,503.5C 180.739,467.493 186.406,430.16 183.5,391.5C 177.437,392.162 171.77,390.996 166.5,388C 161.672,384.419 156.672,381.085 151.5,378C 148.213,374.707 145.713,370.873 144,366.5C 143.333,356.5 143.333,346.5 144,336.5C 145.713,332.127 148.213,328.293 151.5,325C 156.926,321.871 162.093,318.371 167,314.5C 167.5,276.168 167.667,237.835 167.5,199.5C 152.163,199.667 136.83,199.5 121.5,199C 117,197.167 113.833,194 112,189.5C 111.333,178.167 111.333,166.833 112,155.5C 113.927,150.572 117.427,147.406 122.5,146C 127.846,145.47 133.179,145.637 138.5,146.5C 143.405,146.274 148.072,145.107 152.5,143C 160.128,137.04 167.462,130.707 174.5,124C 179.58,120.376 184.747,116.876 190,113.5C 189.195,110.28 188.362,106.946 187.5,103.5C 190.785,92.762 195.785,82.9287 202.5,74C 214.429,70.2018 225.429,64.5351 235.5,57C 225.123,48.2067 221.29,37.04 224,23.5C 227.349,10.9853 235.182,2.98533 247.5,-0.5 Z M 250.5,16.5 C 267.765,16.2567 273.598,24.2567 268,40.5C 261.749,47.0107 254.582,48.1773 246.5,44C 239.989,37.7488 238.823,30.5821 243,22.5C 245.114,19.8792 247.614,17.8792 250.5,16.5 Z M 254.5,65.5 C 257.94,67.0549 261.273,68.8882 264.5,71C 258.5,71.6667 252.5,71.6667 246.5,71C 249.407,69.3909 252.073,67.5576 254.5,65.5 Z M 212.5,87.5 C 241.174,87.1668 269.841,87.5002 298.5,88.5C 300.833,93.1667 303.167,97.8333 305.5,102.5C 272.167,103.833 238.833,103.833 205.5,102.5C 208.118,97.5986 210.452,92.5986 212.5,87.5 Z M 217.5,119.5 C 242.836,119.333 268.169,119.5 293.5,120C 312.355,127.261 328.689,138.261 342.5,153C 354.394,162.14 367.727,165.307 382.5,162.5C 382.5,169.5 382.5,176.5 382.5,183.5C 334.832,183.333 287.166,183.5 239.5,184C 234.167,189 234.167,194 239.5,199C 268.831,199.5 298.165,199.667 327.5,199.5C 327.5,236.833 327.5,274.167 327.5,311.5C 279.5,311.5 231.5,311.5 183.5,311.5C 183.5,274.167 183.5,236.833 183.5,199.5C 194.505,199.667 205.505,199.5 216.5,199C 221.833,194 221.833,189 216.5,184C 186.835,183.5 157.169,183.333 127.5,183.5C 127.5,176.5 127.5,169.5 127.5,162.5C 140.709,165.281 153.042,163.114 164.5,156C 179.866,140.331 197.533,128.164 217.5,119.5 Z M 215.5,231.5 C 218.167,231.5 220.833,231.5 223.5,231.5C 223.5,236.833 223.5,242.167 223.5,247.5C 220.833,247.5 218.167,247.5 215.5,247.5C 215.5,242.167 215.5,236.833 215.5,231.5 Z M 239.5,231.5 C 242.167,231.5 244.833,231.5 247.5,231.5C 247.5,236.833 247.5,242.167 247.5,247.5C 244.833,247.5 242.167,247.5 239.5,247.5C 239.5,242.167 239.5,236.833 239.5,231.5 Z M 263.5,231.5 C 266.167,231.5 268.833,231.5 271.5,231.5C 271.5,236.833 271.5,242.167 271.5,247.5C 268.833,247.5 266.167,247.5 263.5,247.5C 263.5,242.167 263.5,236.833 263.5,231.5 Z M 287.5,231.5 C 290.167,231.5 292.833,231.5 295.5,231.5C 295.5,236.833 295.5,242.167 295.5,247.5C 292.833,247.5 290.167,247.5 287.5,247.5C 287.5,242.167 287.5,236.833 287.5,231.5 Z M 215.5,263.5 C 218.167,263.5 220.833,263.5 223.5,263.5C 223.5,268.833 223.5,274.167 223.5,279.5C 220.833,279.5 218.167,279.5 215.5,279.5C 215.5,274.167 215.5,268.833 215.5,263.5 Z M 239.5,263.5 C 242.167,263.5 244.833,263.5 247.5,263.5C 247.5,268.833 247.5,274.167 247.5,279.5C 244.833,279.5 242.167,279.5 239.5,279.5C 239.5,274.167 239.5,268.833 239.5,263.5 Z M 263.5,263.5 C 266.167,263.5 268.833,263.5 271.5,263.5C 271.5,268.833 271.5,274.167 271.5,279.5C 268.833,279.5 266.167,279.5 263.5,279.5C 263.5,274.167 263.5,268.833 263.5,263.5 Z M 287.5,263.5 C 290.167,263.5 292.833,263.5 295.5,263.5C 295.5,268.833 295.5,274.167 295.5,279.5C 292.833,279.5 290.167,279.5 287.5,279.5C 287.5,274.167 287.5,268.833 287.5,263.5 Z M 178.5,327.5 C 229.834,327.333 281.168,327.5 332.5,328C 338.612,331.779 344.445,335.945 350,340.5C 352,347.833 352,355.167 350,362.5C 345.101,366.699 339.934,370.532 334.5,374C 322.127,374.957 309.793,375.957 297.5,377C 292.94,389.287 297.273,394.12 310.5,391.5C 307.787,426.924 312.121,461.424 323.5,495C 278.167,495.667 232.833,495.667 187.5,495C 198.88,461.421 203.213,426.921 200.5,391.5C 228.169,391.667 255.835,391.5 283.5,391C 285.333,390.5 286.5,389.333 287,387.5C 287.667,384.833 287.667,382.167 287,379.5C 286.5,377.667 285.333,376.5 283.5,376C 247.786,375.974 212.12,375.307 176.5,374C 171.066,370.532 165.899,366.699 161,362.5C 159,355.167 159,347.833 161,340.5C 166.734,335.918 172.568,331.585 178.5,327.5 Z"/></g>
<g><path style="opacity:0.997" fill="#000000" d="M 203.5,215.5 C 238.92,215.013 274.253,215.513 309.5,217C 310.126,217.75 310.626,218.584 311,219.5C 311.167,231.5 311.333,243.5 311.5,255.5C 311.649,268.258 311.149,280.925 310,293.5C 309.25,294.126 308.416,294.626 307.5,295C 290.167,295.167 272.833,295.333 255.5,295.5C 237.412,295.654 219.412,295.154 201.5,294C 200.874,293.25 200.374,292.416 200,291.5C 199.333,267.5 199.333,243.5 200,219.5C 200.69,217.65 201.856,216.316 203.5,215.5 Z M 215.5,231.5 C 215.5,236.833 215.5,242.167 215.5,247.5C 218.167,247.5 220.833,247.5 223.5,247.5C 223.5,242.167 223.5,236.833 223.5,231.5C 220.833,231.5 218.167,231.5 215.5,231.5 Z M 239.5,231.5 C 239.5,236.833 239.5,242.167 239.5,247.5C 242.167,247.5 244.833,247.5 247.5,247.5C 247.5,242.167 247.5,236.833 247.5,231.5C 244.833,231.5 242.167,231.5 239.5,231.5 Z M 263.5,231.5 C 263.5,236.833 263.5,242.167 263.5,247.5C 266.167,247.5 268.833,247.5 271.5,247.5C 271.5,242.167 271.5,236.833 271.5,231.5C 268.833,231.5 266.167,231.5 263.5,231.5 Z M 287.5,231.5 C 287.5,236.833 287.5,242.167 287.5,247.5C 290.167,247.5 292.833,247.5 295.5,247.5C 295.5,242.167 295.5,236.833 295.5,231.5C 292.833,231.5 290.167,231.5 287.5,231.5 Z M 215.5,263.5 C 215.5,268.833 215.5,274.167 215.5,279.5C 218.167,279.5 220.833,279.5 223.5,279.5C 223.5,274.167 223.5,268.833 223.5,263.5C 220.833,263.5 218.167,263.5 215.5,263.5 Z M 239.5,263.5 C 239.5,268.833 239.5,274.167 239.5,279.5C 242.167,279.5 244.833,279.5 247.5,279.5C 247.5,274.167 247.5,268.833 247.5,263.5C 244.833,263.5 242.167,263.5 239.5,263.5 Z M 263.5,263.5 C 263.5,268.833 263.5,274.167 263.5,279.5C 266.167,279.5 268.833,279.5 271.5,279.5C 271.5,274.167 271.5,268.833 271.5,263.5C 268.833,263.5 266.167,263.5 263.5,263.5 Z M 287.5,263.5 C 287.5,268.833 287.5,274.167 287.5,279.5C 290.167,279.5 292.833,279.5 295.5,279.5C 295.5,274.167 295.5,268.833 295.5,263.5C 292.833,263.5 290.167,263.5 287.5,263.5 Z"/></g>
</svg>
